<?xml version="1.0" encoding="UTF-8"?><svg id="a" xmlns="http://www.w3.org/2000/svg" viewBox="0 0 498.05 225.88"><defs><style>.b{stroke:#000;stroke-miterlimit:10;stroke-width:5px;}</style></defs><path class="b" d="M494.97,114.5c-1.35-1.88-3.26-2.35-5.4-1.9-5.38,1.16-10.72,2.53-16.13,3.56-19.34,3.69-38.73,7.15-58.06,10.92-17.31,3.37-34.66,6.41-52.24,7.96-7.59,.67-15.22,.88-22.82,1.53-5.26,.45-10.49,1.3-15.73,1.99-1.14,.15-2.02,.38-2.65-1.18-.31-.77-2.02-1.47-3.02-1.37-2.3,.23-4.55,.96-6.83,1.47-.28,.06-.59,.03-.89,.04,.06-.29,.11-.57,.17-.86,.51-2.84,1.35-5.66,1.45-8.51,.12-3.33-2.52-5.27-5.7-4.3-2.8,.85-5.65,1.88-8.12,3.41-10.56,6.54-21.74,11.83-33,16.99-1,.46-1.14,.28-1.11-.75,.1-3.82-.81-7.34-3.39-10.29-1.03-1.18-2.95-2.4-2.89-3.52,.08-1.39,1.75-2.72,2.78-4.04,8.88-11.29,19.27-21.14,29.61-31.04,.98-.94,1.41-1.96,.68-3.17-.73-1.2-1.97-1.55-3.09-.82-1.98,1.29-4.01,2.62-5.65,4.3-2.8,2.87-5.23,6.08-7.95,9.02-2.08,2.25-4.21,4.51-6.61,6.38-6.4,4.98-12.96,9.75-19.49,14.57-.42,.31-1.15,.49-1.65,.37-6.61-1.51-13.21-3.07-19.81-4.63-.41-.1-.79-.27-1.19-.4,.37-.21,.71-.49,1.1-.63,10.78-3.84,21.58-7.66,32.35-11.52,.46-.17,.78-.75,1.16-1.14-.51-.17-1.09-.6-1.53-.48-8.32,2.29-16.64,4.57-24.92,7.02-5.06,1.49-10.04,3.29-15.08,4.87-.79,.25-1.75,.22-2.58,.04-11.1-2.43-21.81-6.08-32.21-10.61-2.96-1.29-5.77-3.05-8.41-4.93-3.47-2.47-4.76-6.04-4.35-10.31,.37-3.83,2.01-7.09,4.18-10.14,7.09-9.97,16.55-17.01,27.64-21.92,19.05-8.44,39.03-11.87,59.8-10.8,5.53,.29,10.7,1.61,14.75,5.81,.49,.51,1.43,.84,2.14,.82,.67-.03,1.62-.49,1.88-1.03,.24-.51-.07-1.54-.49-2.05-.9-1.07-2.18-1.83-3.05-2.91-2.5-3.1-5.95-4.65-9.65-4.92-5.86-.42-11.81-.69-17.64-.14-14.14,1.33-27.54,5.82-40.84,10.54-8.18,2.91-15.91,6.69-22.87,11.97-7.45,5.65-13.43,12.6-18,20.72-4.45,7.93-2.85,14.73,4.84,19.56,3.47,2.18,7.28,4.13,11.2,5.22,8.65,2.4,17.46,4.19,26.21,6.23,.35,.08,.68,.25,1.02,.37-.32,.12-.64,.27-.97,.34-4.41,1.05-8.83,2.09-13.25,3.13-9.81,2.29-19.64,4.53-29.43,6.88-3.38,.81-6.69,1.91-10.03,2.85-.43,.12-.89,.1-1.34,.15,.3-.31,.6-.62,.91-.92,2.95-2.9,6.24-5.53,8.74-8.78,1.92-2.49,3.01-5.69,4.17-8.69,.6-1.55,.05-3.22-1.54-4.12-1.61-.91-3.03-.28-4.35,.81-2,1.65-3.97,3.37-6.1,4.84-17.31,11.88-33.29,25.39-48.7,39.59-9.11,8.39-17.86,17.17-26.78,25.76-.24,.23-.54,.38-.81,.57,.08-.23,.13-.48,.24-.69,9.82-18.68,19.84-37.25,29.41-56.06,12.24-24.07,24.11-48.34,33.25-73.82,3.47-9.67,5.97-19.54,5.23-29.98-.7-9.81-6.11-16.77-15.31-18.56-4.04-.79-8.34-.84-12.47-.51-8.75,.71-16.94,3.78-24.86,7.34C60.26,27.41,29.69,53.73,9.61,91.51c-4.94,9.29-7.5,19.14-7.06,29.72,.38,9.18,3.36,17.04,11.07,22.64,7.45,5.41,15.67,8.32,24.96,8.19,3.29-.33,6.61-.46,9.85-1.03,11.35-2.01,22.01-6.24,32.61-10.61,1.44-.59,2.8-1.51,3.96-2.55,.52-.47,.43-1.61,.62-2.44-.85,.02-1.8-.19-2.54,.1-1.08,.43-1.93,1.47-3.01,1.83-9.52,3.18-18.97,6.61-28.64,9.28-8.46,2.34-17.21,2.83-25.66-.3-10.66-3.95-18.19-10.78-19.65-22.79-.98-8.07,0-15.92,2.45-23.6,2.88-9,7.68-17.06,12.97-24.75C42.95,44.09,71.76,22.32,106.84,8.67c7.64-2.97,15.5-5.03,23.84-4.53,10.21,.61,16.43,5.95,17.58,16.08,.57,4.98,.31,10.13-.17,15.14-.98,10.15-4.62,19.61-8.44,28.95-8.94,21.83-19.14,43.08-30.07,63.97-10,19.13-20.21,38.15-30.42,57.16-1.02,1.9-2.52,3.61-4.06,5.13-6.63,6.53-13.31,13.02-18.44,20.86-1.41,2.15-2.54,4.53-3.44,6.94-.83,2.24,.08,4.11,1.81,4.78,1.71,.66,3.32-.13,4.55-2.18,2.29-3.81,4.56-7.64,6.9-11.42,3.04-4.91,6.12-9.79,9.25-14.64,1.07-1.66,2.2-3.31,3.53-4.77,22.24-24.48,46.72-46.51,73.12-66.4,3.06-2.3,6.35-4.3,9.58-6.36,1.02-.65,2.2-1.03,3.31-1.54-.59,1.13-1,2.43-1.81,3.37-5.65,6.58-11.84,12.56-19.36,17.03-2.92,1.74-5.88,3.4-8.74,5.21-1.65,1.05-1.99,2.9-1.02,4.38,.91,1.39,2.62,1.8,4.2,.92,7.58-4.27,15.65-7.22,24.12-9.19,5.35-1.24,10.57-3.17,15.97-4.04,14.87-2.39,29.63-5.02,43.39-11.54,.44-.21,1.04-.28,1.51-.18,7.1,1.54,14.19,3.11,21.29,4.7,.4,.09,.75,.34,1.13,.52-.28,.27-.53,.57-.84,.8-18.12,13.93-35.55,28.67-52.35,44.15-3.28,3.02-6.29,6.47-8.78,10.16-1.97,2.93-3.37,6.41-4.24,9.85-1.33,5.23,1.28,9.09,6.05,9.89,1.16,.2,2.38,.23,3.56,.17,8.69-.46,16.94-2.76,24.82-6.35,12.24-5.56,22.57-13.86,32.31-22.94,6.01-5.6,11.75-11.46,15.59-18.87,.17-.32,.54-.57,.86-.78,3.77-2.44,7.49-4.97,11.35-7.27,7.87-4.68,15.77-9.31,23.75-13.8,2-1.13,4.32-1.75,6.54-2.42,2.39-.71,2.53-.57,1.74,1.78-.93,2.79-2.21,5.48-3.02,8.3-.88,3.09,1.3,5.43,4.52,5.04,1.43-.18,2.83-.63,4.25-.93,.36-.08,.93-.21,1.09-.03,1.85,2.13,4.4,2.12,6.75,1.82,7.72-.99,15.54-1.69,23.08-3.49,12.5-2.98,25.18-4.75,37.8-6.98,25.85-4.57,51.65-9.46,77.46-14.25,10.73-1.99,21.44-3.8,32.42-2.08,1.19,.19,2.65-.5,3.81-1.12,1.32-.71,1.36-1.97,.5-3.17Zm-244.05,11.28c5.22-3.95,10.48-7.86,15.72-11.78,.07-.05,.15-.09,.37-.22-.05,.24-.05,.4-.12,.51-3.41,4.75-6.82,9.5-10.26,14.22-.14,.2-.71,.28-.97,.17-1.54-.64-3.05-1.34-4.55-2.09-.17-.08-.28-.73-.19-.81Zm4.43,31.67c-3.34,4.37-6.36,9.04-10.12,13.02-11.78,12.48-25.3,22.45-42.08,27.26-3.49,1-7.13,1.51-10.7,2.24l-.07-.34c-.4,0-.79,.02-1.19,0-5.22-.23-7.07-1.64-5.7-7.94,.43-1.97,1.46-3.88,2.49-5.65,5.17-8.89,11.21-17.18,19.04-23.88,13.38-11.46,27.02-22.62,40.59-33.87,.4-.33,1.26-.45,1.74-.26,1.55,.61,3.02,1.42,4.54,2.12,.95,.44,.94,.88,.38,1.78-2.98,4.83-5.88,9.71-8.75,14.6-.55,.94-.92,2-1.29,3.03-1.23,3.47,.54,6.68,4.2,7.13,2.01,.25,4.1-.16,6.15-.28,.43-.03,.85-.09,1.28-.14-.16,.39-.26,.84-.5,1.16Zm1.62-8.97c-1.95,.73-4.03,1.18-6.09,1.58-.34,.07-1.27-.82-1.22-1.15,.37-2.28,.62-4.66,1.51-6.75,1.33-3.09,3.17-5.96,4.76-8.94,.53-.98,.96-.82,1.63-.11,2.43,2.57,3.52,5.44,3.48,9.37-.05,4.38-.03,4.47-4.09,6Z"/></svg>